# xmcd
#
# Track frame offsets: 
#        150
#        12007
#        25366
#        38091
#        49524
#        61570
#        74356
#        86002
#        100223
#        117000
#        128454
#        141458
#        161093
#        172171
#        186127
#        198537
#        210007
#        234723
#        246451
#        260511
#        276716
#        288022
#        301202
#
# Disc length: 4281 seconds
#
# Revision: 0
# Processed by: cddbd v1.5.2PL0 Copyright (c) Steve Scherf et al.
# Submitted via: ExactAudioCopy v0.95b3
#
DISCID=4710b717
DTITLE=The Monkees - The Monkees Complete 11 of 28
DYEAR=1900
DGENRE=
TTITLE0=Salesman
TTITLE1=She Hangs Out
TTITLE2=The Door Into Summer
TTITLE3=Love Is Only Sleeping
TTITLE4=Cuddly Toy
TTITLE5=Words
TTITLE6=Hard To Believe
TTITLE7=What Am I Doing Hangin' Round?
TTITLE8=Peter Percival Patterson's Pet Pig Porky - Pleasant Valley Sun
TTITLE8=day
TTITLE9=Daily Nightly
TTITLE10=Don't Call On Me
TTITLE11=Star Collector
TTITLE12=Salesman (mono)
TTITLE13=She Hangs Out (mono)
TTITLE14=The Door Into Summer (mono)
TTITLE15=Love Is Only Sleeping (mono)
TTITLE16=Cuddly Toy - Words (mono)
TTITLE17=Hard To Believe (mono)
TTITLE18=What Am I Doing Hangin' Round (mono)
TTITLE19=Peter Percival Patterson's Pet Pig Porky - Pleasant Valley Su
TTITLE19=nday (mono)
TTITLE20=Daily Nightly (mono)
TTITLE21=Don't Call On Me (mono)
TTITLE22=Star Collector (mono)
EXTD=
EXTT0=
EXTT1=
EXTT2=
EXTT3=
EXTT4=
EXTT5=
EXTT6=
EXTT7=
EXTT8=
EXTT9=
EXTT10=
EXTT11=
EXTT12=
EXTT13=
EXTT14=
EXTT15=
EXTT16=
EXTT17=
EXTT18=
EXTT19=
EXTT20=
EXTT21=
EXTT22=
PLAYORDER=
